# xmcd
#
# Track frame offsets: 
#        180
#        12095
#        24445
#        38202
#        55025
#        66385
#        76722
#        92747
#        104405
#        118200
#        129442
#        142010
#        154640
#        169745
#        186735
#        201392
#
# Disc length: 2808 seconds
#
# Revision: 0
# Processed by: cddbd v1.4PL0 Copyright (c) Steve Scherf et al.
# Submitted via: ExactAudioCopy v0.95a3
#
DISCID=dd0af610
DTITLE=Bluegrass Avenue - En Cavale
DYEAR=1996
DGENRE=
TTITLE0=En Cavale
TTITLE1=I've Waited As Long As I Can
TTITLE2=Blue Train
TTITLE3=Panhandle Rag
TTITLE4=Vieux Tortillard
TTITLE5=The Boys Are Back In Town
TTITLE6=Sur Le Quai De La Gare
TTITLE7=Mathilde's Jig
TTITLE8=Vieille Legende Indienne
TTITLE9=Cold Virginia
TTITLE10=Nostalgie Blues
TTITLE11=My Heart Can't Stop Loving You
TTITLE12=Jethro's Tune
TTITLE13=One Of These Trains
TTITLE14=Devil In Disguise
TTITLE15=Smirre
EXTD=
EXTT0=
EXTT1=
EXTT2=
EXTT3=
EXTT4=
EXTT5=
EXTT6=
EXTT7=
EXTT8=
EXTT9=
EXTT10=
EXTT11=
EXTT12=
EXTT13=
EXTT14=
EXTT15=
PLAYORDER=
